<svg xmlns="http://www.w3.org/2000/svg" viewBox="100 50 500 500">
<path d="m 394.01807,60.679852 c -45.21185,-9.741975 -94.27488,-6.104431 -135.75481,15.25474 5.20137,7.28533 22.96702,6.070864 33.39956,9.934547 65.11406,14.410141 130.22812,28.820291 195.34218,43.230431 -26.23815,118.56042 -52.47629,237.12085 -78.71444,355.68127 -80.49064,-17.8131 -160.98128,-35.6262 -241.47192,-53.4393 50.24198,74.30517 151.26434,101.47488 235.40004,77.62881 57.82288,-15.09457 107.98145,-55.32796 135.8632,-108.11626 C 602.33239,293.42267 559.47687,136.33021 447.30252,79.183305 430.53702,70.487658 412.29581,65.137755 394.01807,60.679852 Z M 215.50521,99.740846 c -21.91659,99.032894 -43.83318,198.065794 -65.74977,297.098694 78.57539,17.3892 157.15079,34.7784 235.72618,52.1676 21.91659,-99.03288 43.83317,-198.06575 65.74976,-297.09863 C 372.65599,134.51929 294.0806,117.13007 215.50521,99.740846 Z m 19.29588,33.325854 c 55.7092,13.10094 111.41839,26.20188 167.12759,39.30282 -2.28904,9.73471 -4.57809,19.46942 -6.86713,29.20413 -55.7092,-13.10094 -111.4184,-26.20187 -167.1276,-39.30281 2.28905,-9.73471 4.57809,-19.46943 6.86714,-29.20414 z m -57.87388,2.15501 c -50.84095,58.28182 -70.09992,142.92755 -48.07535,217.23456 16.02512,-72.41152 32.05023,-144.82304 48.07535,-217.23456 z m 46.84175,50.71408 c 35.82839,8.70052 71.65679,17.40105 107.48518,26.10157 -2.35996,9.71768 -4.71991,19.43536 -7.07987,29.15304 -35.82825,-8.70116 -71.65651,-17.40232 -107.48476,-26.10348 2.35982,-9.71704 4.71963,-19.43409 7.07945,-29.15113 z m -12.03775,52.64052 c 47.007,11.17509 94.01399,22.35017 141.02099,33.52526 -2.31306,9.72872 -4.62612,19.45745 -6.93918,29.18617 -47.00636,-11.17493 -94.01272,-22.34987 -141.01908,-33.5248 2.31242,-9.72888 4.62485,-19.45775 6.93727,-29.18663 z m -11.05839,52.86123 c 31.74808,7.79753 63.49616,15.59507 95.24424,23.3926 -2.38524,9.71143 -4.77049,19.42287 -7.15573,29.1343 -31.74808,-7.79753 -63.49616,-15.59507 -95.24424,-23.3926 2.38524,-9.71143 4.77049,-19.42287 7.15573,-29.1343 z" style="fill:#006688"/></svg>
