<svg xmlns="http://www.w3.org/2000/svg" viewBox="0 0 467.71653 467.71653">
<g transform="translate(-110.13259,-53.169773)">
  <path
    d="M 323.1943,56.183009 C 200.07859,67.325679 109.62743,179.70994
    121.16597,307.20034 c 1.48445,15.51639 4.47653,30.84805 8.9308,45.76215
    L 356.92806,153.93675 c 50.68665,39.22373 84.98679,98.9306
    105.20123,176.2446 l -155.11278,48.07173 -0.53345,32.63209
    -85.96701,26.84838 -20.25478,-26.39696 -36.57443,11.33506
    c 46.48593,66.04111 122.91301,102.18476 201.29259,95.19464
    C 480.22813,507.34011 568.1698,407.57356 567.8066,287.7664
    l -55.74192,6.65897 -3.55878,-29.7868 57.22611,-6.83645 c -3.67307,-28.5099
    -12.43432,-56.09712 -25.83666,-81.35387 l -48.8304,29.59027
    -15.54792,-25.65807 48.46056,-29.36461 C 505.90186,125.43012
    482.9836,103.90847 456.63189,87.774099 L 428.09215,133.60543
    402.62559,117.74849 430.00442,73.781339 C 396.2685,58.987469
    359.59731,52.945428 323.1943,56.183009 Z" style="fill:#006688"/>
</g>
</svg>
