<?xml version="1.0" encoding="UTF-8" standalone="no"?>
<!-- Created with Inkscape (http://www.inkscape.org/) -->

<svg
   xmlns:dc="http://purl.org/dc/elements/1.1/"
   xmlns:cc="http://creativecommons.org/ns#"
   xmlns:rdf="http://www.w3.org/1999/02/22-rdf-syntax-ns#"
   xmlns:svg="http://www.w3.org/2000/svg"
   xmlns="http://www.w3.org/2000/svg"
   xmlns:sodipodi="http://sodipodi.sourceforge.net/DTD/sodipodi-0.dtd"
   xmlns:inkscape="http://www.inkscape.org/namespaces/inkscape"
   width="488.37411mm"
   height="342.24261mm"
   viewBox="0 0 1730.4595 1212.6707"
   id="svg2"
   version="1.1"
   inkscape:version="0.91 r13725"
   sodipodi:docname="spesialteikna-ikon.svg">
  <defs
     id="defs4" />
  <sodipodi:namedview
     id="base"
     pagecolor="#ffffff"
     bordercolor="#666666"
     borderopacity="1.0"
     inkscape:pageopacity="0.0"
     inkscape:pageshadow="2"
     inkscape:zoom="0.35"
     inkscape:cx="909.79764"
     inkscape:cy="620.5074"
     inkscape:document-units="px"
     inkscape:current-layer="layer1"
     showgrid="false"
     fit-margin-top="10"
     fit-margin-left="10"
     fit-margin-right="10"
     fit-margin-bottom="10"
     inkscape:window-width="1360"
     inkscape:window-height="704"
     inkscape:window-x="0"
     inkscape:window-y="27"
     inkscape:window-maximized="1" />
  <metadata
     id="metadata7">
    <rdf:RDF>
      <cc:Work
         rdf:about="">
        <dc:format>image/svg+xml</dc:format>
        <dc:type
           rdf:resource="http://purl.org/dc/dcmitype/StillImage" />
        <dc:title></dc:title>
      </cc:Work>
    </rdf:RDF>
  </metadata>
  <g
     inkscape:label="Layer 1"
     inkscape:groupmode="layer"
     id="layer1"
     transform="translate(827.59577,-66.719453)">
    <ellipse
       style="fill:#e6e6e6;stroke-width:30;stroke-miterlimit:4;stroke-dasharray:none"
       id="path4155"
       cx="-496.28949"
       cy="393.86456"
       rx="223.83197"
       ry="231.7854" />
    <path
       style="fill:none;fill-rule:evenodd;stroke:#006688;stroke-width:30;stroke-linecap:butt;stroke-linejoin:miter;stroke-miterlimit:4;stroke-dasharray:none;stroke-opacity:1"
       d="m -471.50352,262.47599 -301.05884,219.4778 24.43738,43.53687 97.39101,-20.78415 17.79189,28.11444 88.03832,-18.99002 3.47129,-32.45049 158.81471,-33.89389 z"
       id="path3338"
       inkscape:connector-curvature="0"
       sodipodi:nodetypes="ccccccccc" />
    <path
       style="fill:none;fill-rule:evenodd;stroke:#006688;stroke-width:30;stroke-linecap:butt;stroke-linejoin:miter;stroke-miterlimit:4;stroke-dasharray:none;stroke-opacity:1"
       d="m -410.76394,239.59773 54.88596,-72.61786"
       id="path4149"
       inkscape:connector-curvature="0"
       sodipodi:nodetypes="cc" />
    <path
       inkscape:connector-curvature="0"
       id="path4151"
       d="m -330.09255,401.38342 97.08349,-2.78086"
       style="fill:none;fill-rule:evenodd;stroke:#006688;stroke-width:30;stroke-linecap:butt;stroke-linejoin:miter;stroke-miterlimit:4;stroke-dasharray:none;stroke-opacity:1"
       sodipodi:nodetypes="cc" />
    <path
       style="fill:none;fill-rule:evenodd;stroke:#006688;stroke-width:30;stroke-linecap:butt;stroke-linejoin:miter;stroke-miterlimit:4;stroke-dasharray:none;stroke-opacity:1"
       d="m -349.19565,312.97865 89.12869,-43.55367"
       id="path4153"
       inkscape:connector-curvature="0"
       sodipodi:nodetypes="cc" />
    <path
       style="fill:#006688;fill-opacity:1;stroke-width:30;stroke-miterlimit:4;stroke-dasharray:none"
       d="m 94.245734,131.57395 a 231.7854,223.83197 84.828474 0 0 -202.028324,251.01733 231.7854,223.83197 84.828474 0 0 8.930794,45.76215 L 127.9795,229.32769 l 105.20123,176.2446 -155.112786,48.07173 -0.53345,32.63209 -85.9670097,26.84838 -20.2547803,-26.39696 -36.57443,11.33506 A 231.7854,223.83197 84.828474 0 0 136.03087,593.25723 231.7854,223.83197 84.828474 0 0 338.85804,363.15734 l -55.74192,6.65897 -3.55878,-29.7868 57.22611,-6.83645 a 231.7854,223.83197 84.828474 0 0 -25.83666,-81.35387 l -48.8304,29.59027 -15.54792,-25.65807 48.46056,-29.36461 a 231.7854,223.83197 84.828474 0 0 -67.3457,-63.24174 l -28.53974,45.83133 -25.46656,-15.85694 27.37883,-43.96715 A 231.7854,223.83197 84.828474 0 0 94.245734,131.57395 Z"
       id="ellipse4157"
       inkscape:connector-curvature="0" />
    <path
       inkscape:connector-curvature="0"
       id="path4178"
       d="m 622.81717,103.00252 c -123.11571,11.14267 -213.56686,123.52693 -202.02833,251.01733 1.48445,15.51639 4.47653,30.84805 8.9308,45.76215 L 656.55093,200.75626 c 50.68665,39.22373 84.98679,98.9306 105.20123,176.2446 l -155.11278,48.07173 -0.53345,32.63209 -85.96701,26.84838 -20.25478,-26.39696 -36.57443,11.33506 C 509.79564,535.53227 586.22272,571.67592 664.6023,564.6858 779.851,554.15962 867.79267,454.39307 867.42947,334.58591 l -55.74192,6.65897 -3.55878,-29.7868 57.22611,-6.83645 c -3.67307,-28.5099 -12.43432,-56.09712 -25.83666,-81.35387 l -48.8304,29.59027 -15.54792,-25.65807 48.46056,-29.36461 c -18.07573,-25.58572 -40.99399,-47.10737 -67.3457,-63.24174 L 727.71502,180.42494 702.24846,164.568 729.62729,120.60085 C 695.89137,105.80698 659.22018,99.764939 622.81717,103.00252 Z"
       style="fill:#006688;fill-opacity:1;stroke-width:30;stroke-miterlimit:4;stroke-dasharray:none"
       sodipodi:nodetypes="cccccccccccccccccccccccc" />
    <ellipse
       ry="231.7854"
       rx="223.83197"
       cy="1002.436"
       cx="-464.86093"
       id="ellipse4181"
       style="fill:#e6e6e6;stroke-width:30;stroke-miterlimit:4;stroke-dasharray:none" />
    <path
       style="color:#000000;font-style:normal;font-variant:normal;font-weight:normal;font-stretch:normal;font-size:medium;line-height:normal;font-family:sans-serif;text-indent:0;text-align:start;text-decoration:none;text-decoration-line:none;text-decoration-style:solid;text-decoration-color:#000000;letter-spacing:normal;word-spacing:normal;text-transform:none;direction:ltr;block-progression:tb;writing-mode:lr-tb;baseline-shift:baseline;text-anchor:start;white-space:normal;clip-rule:nonzero;display:inline;overflow:visible;visibility:visible;opacity:1;isolation:auto;mix-blend-mode:normal;color-interpolation:sRGB;color-interpolation-filters:linearRGB;solid-color:#000000;solid-opacity:1;fill:#006688;fill-opacity:1;fill-rule:nonzero;stroke:none;stroke-width:30;stroke-linecap:butt;stroke-linejoin:miter;stroke-miterlimit:4;stroke-dasharray:none;stroke-dashoffset:0;stroke-opacity:1;color-rendering:auto;image-rendering:auto;shape-rendering:auto;text-rendering:auto;enable-background:accumulate"
       d="m -660.71484,817.36133 0,15 0,349.28707 301.42968,0 0,-364.28707 -301.42968,0 z m 30,30 241.42968,0 0,304.28707 -241.42968,0 0,-304.28707 z m 26.04101,28.36914 -0.39453,29.99805 171.67188,2.26171 0.39453,-29.99804 -171.67188,-2.26172 z m 0.65235,54.00391 -0.61329,29.99218 110.58594,2.26172 0.61328,-29.99414 -110.58593,-2.25976 z m -0.37891,53.99804 -0.4668,29.99608 144.93164,2.2617 0.46875,-29.99606 -144.93359,-2.26172 z m 0.625,54.00198 -0.69141,29.9922 98.04883,2.2597 0.69141,-29.9922 -98.04883,-2.2597 z"
       id="rect4191"
       inkscape:connector-curvature="0" />
    <path
       style="fill:#006688;fill-opacity:1;stroke-width:30;stroke-miterlimit:4;stroke-dasharray:none"
       d="M 152.92939,786.22762 A 223.83197,231.7854 12.478781 0 0 11.616574,802.79536 L 245.91632,854.64734 167.20188,1210.3286 -74.27004,1156.8893 A 223.83197,231.7854 12.478781 0 0 52.762014,1238.8466 223.83197,231.7854 12.478781 0 0 321.38995,1060.9023 223.83197,231.7854 12.478781 0 0 152.92939,786.22762 Z m -178.512865,39.061 -65.749763,297.09868 235.726178,52.1676 L 210.1427,877.45628 -25.583475,825.28862 Z M -6.2875981,858.61447 160.84,897.91728 153.97287,927.12141 -13.154729,887.8186 -6.2875981,858.61447 Z m -57.8738749,2.15501 a 223.83197,231.7854 12.478781 0 0 -51.537067,103.40243 223.83197,231.7854 12.478781 0 0 3.18328,115.09029 l 48.353787,-218.49272 z m 46.841749,50.71407 107.485181,26.10157 -7.079868,29.15304 -107.484758,-26.10348 7.079445,-29.15113 z m -12.037746,52.64052 141.02099,33.52526 -6.93918,29.18617 -141.019082,-33.5248 6.937272,-29.18663 z m -11.058394,52.86123 95.244239,23.3926 -7.155729,29.1343 -95.244239,-23.3926 7.155729,-29.1343 z"
       id="ellipse4222"
       inkscape:connector-curvature="0" />
  </g>
</svg>
