<svg xmlns="http://www.w3.org/2000/svg" width="608.6" height="138.8"><path fill="none" stroke="#fff" stroke-width="2.31" d="M60.56 40.42c16-13.8 40.16-12 53.95 4.02 13.8 16 12 40.16-4 53.95-16.02 13.78-40.18 11.98-53.96-4.03-9.47-11-11.9-26.4-6.3-39.76"/><g fill="#fff"><path d="M40.14 49.72c.53 1.56 1.9 2.7 3.34 3.4 1.33.62 2.94.9 4.34.3l.65-2.2c-1.5-1.5-3.12-2.97-5-3.95-.78-.38-1.73-.76-2.56-.33-.75.45-1 1.45-.87 2.28.02.17.06.33.1.5zM47.6 48.55c.23.78.54 1.55 1 2.23 1.34-.06 2.47-1 3.18-2.1.65-1.06.57-2.4.33-3.58-.3-1.4-.9-2.84-2.03-3.78-.5-.4-1.23-.76-1.83-.37-.7.52-.9 1.46-1.04 2.27-.25 1.77-.08 3.6.4 5.33zM51.1 50.28c.4.63.84 1.27 1.27 1.9 1.53-.78 3.28-.78 4.93-1.12.6-.12 1.14-.4 1.5-.9.86-1 1.78-2.14 1.82-3.52 0-.74-.33-1.56-1.06-1.83-1.16-.44-2.46-.28-3.64 0-.67.17-1.3.5-1.75 1.03-1.2 1.33-2.18 2.87-3.12 4.4l.03.04zM50.5 53.1c1.67 1.64 3.34 3.3 5.24 4.68.5.36 1.04.62 1.65.7 1.02.22 2.2.46 3.16-.1.38-.2.76-.54.75-1.02.02-1.02-.56-1.93-1.1-2.77-.64-.93-1.36-1.9-2.35-2.46-.97-.43-2.1-.3-3.13-.2-1.47.18-2.93.53-4.33 1.03l.1.12zM49.25 60.23c.44 1.2 1.2 2.27 2.16 3.1.53.42 1.3.8 1.96.42.72-.48.9-1.42 1.02-2.22.14-1.28.1-2.6-.3-3.85-.64-1.6-1.88-2.86-3.18-3.95-.17-.24-.42-.1-.65-.04-.24.1-.67.07-.8.28-.07 1.96-.17 3.92-.3 5.87.02.13.06.26.1.38zM41.74 60.12c.22.66.54 1.4 1.2 1.7.72.25 1.48-.18 2.1-.54 1.1-.72 2.15-1.65 2.62-2.92.63-1.48 1.15-3 1.66-4.53-.43-.06-.86-.2-1.3-.22-2.1.62-4.22 1.5-5.77 3.1-.58.52-.77 1.33-.73 2.1 0 .44.1.9.22 1.32z"/><path d="M47.1 53.34c.33.75.65 1.53 1.23 2.13.5.55 1.32.75 2.02.47.93-.35 1.68-1.03 2.36-1.74.8-1.06.55-2.6-.17-3.65-.48-.7-1.3-1.23-2.18-1.1-1.25.2-2.44.97-3.05 2.08-.3.55-.4 1.2-.2 1.8z"/></g><path fill="#fff" d="M72.45 39.2l.03 7.33c.06 1.48 3.74 1.7 12.96 1.7 11.68.03 12.62-.08 13-1.45.1-.4.18-2.26.2-4.15V39.2h-13.1zm3.24 10.37s-.65 13.33-5.67 19.08c3.44 4.84 12.47 25.53 14.68 33.7v-31.6c-.97-.35-1.7-1.28-1.7-2.37 0-1.4 1.15-2.53 2.54-2.53 1.38 0 2.52 1.14 2.52 2.53 0 1.1-.72 2.02-1.7 2.36v31.5c4.08-11.04 6.53-22.1 14.52-33.15-2.52-4.14-4.3-11.4-4.84-18.7l-20.35-.83z"/><g fill="#fff"><path d="M151.48 49.17h2.76L170.28 76l4.26 7.55h.23q-.1-2.77-.23-5.54-.1-2.76-.1-5.53v-23.3h2.53v38h-2.77l-16.03-26.8-4.27-7.56h-.23q.1 2.77.23 5.43.1 2.6.1 5.36v23.58h-2.52v-38zM185.6 73.4q0-3.46.98-6.18 1.04-2.76 2.7-4.6 1.74-1.85 4-2.83 2.24-1 4.72-1 2.48 0 4.73 1 2.3.97 3.98 2.8 1.74 1.86 2.72 4.62 1.04 2.72 1.04 6.18 0 3.46-1.04 6.17-.98 2.65-2.7 4.5-1.68 1.84-4 2.82-2.24.97-4.72.97-2.48 0-4.73-.98-2.25-1-3.98-2.83-1.68-1.85-2.72-4.5-.98-2.7-.98-6.17zm2.65 0q0 2.7.75 4.96.75 2.24 2.02 3.86 1.33 1.6 3.12 2.54 1.78.86 3.86.86t3.86-.86q1.85-.93 3.12-2.54 1.33-1.62 2.08-3.86.75-2.25.75-4.96 0-2.77-.74-5.02-.75-2.25-2.08-3.87-1.27-1.66-3.12-2.52-1.78-.93-3.86-.93t-3.86.93q-1.8.86-3.12 2.53-1.27 1.63-2.02 3.88t-.75 5.02zM218.77 59.5h2.2l.22 5.13h.17q1.38-2.6 3.34-4.2 2.03-1.63 4.5-1.63.82 0 1.45.12.64.12 1.33.46l-.58 2.3q-.7-.28-1.2-.34-.53-.1-1.34-.1-1.84 0-3.92 1.6-2.02 1.56-3.63 5.48v18.86h-2.53V59.5zM234.5 82.16q1.78 1.5 3.8 2.54 2.02.98 5.02.98 3.3 0 4.9-1.6 1.67-1.7 1.67-3.88 0-1.27-.64-2.25-.58-.98-1.56-1.67-.98-.7-2.2-1.2-1.14-.53-2.35-1-1.56-.57-3.18-1.2-1.55-.64-2.82-1.5-1.27-.93-2.08-2.14-.75-1.27-.75-3.05 0-1.5.58-2.84.58-1.38 1.73-2.36 1.15-1.04 2.77-1.62 1.67-.58 3.86-.58 2.2 0 4.27.8 2.13.82 3.63 2.1l-1.38 1.78q-1.38-1.04-2.94-1.73-1.56-.75-3.7-.75-1.6 0-2.76.46-1.15.4-1.96 1.1-.75.7-1.16 1.6-.34.93-.34 1.85 0 1.22.52 2.1.57.8 1.5 1.43.92.64 2.07 1.16l2.44.9 3.22 1.28q1.62.63 2.9 1.55 1.3.93 2.12 2.3.8 1.34.8 3.36 0 1.54-.62 2.98-.58 1.4-1.8 2.48-1.2 1.04-2.93 1.68-1.73.63-3.98.63-3.12 0-5.7-1.1-2.6-1.15-4.45-2.7l1.5-1.9zM259.77 45.7h2.54V76.3h.13L276.1 59.5h2.94l-9 10.95 10.5 16.73h-2.83l-9.16-14.82-6.23 7.26v7.56h-2.53V45.7zM298.36 49.17h3.75l7.97 22.32 3 8.4h.23l2.88-8.4 7.96-22.33h3.75v38h-2.6V62.22q0-2.36.1-5.07l.24-5.2h-.23l-3 8.37-8.12 22.73h-2.37l-8.18-22.73-3-8.36h-.23l.22 5.2q.12 2.7.12 5.07V87.2h-2.48v-38zM337.18 80.26q0-4.56 4.32-6.98 4.33-2.42 13.56-3.46.05-1.56-.23-3.1-.23-1.63-.98-2.84-.7-1.27-2.02-2.02-1.27-.8-3.3-.8-2.82 0-5.12 1.1-2.3 1.1-3.68 2.12l-1.16-1.9q.75-.52 1.8-1.15 1.1-.64 2.36-1.16 1.32-.52 2.88-.86 1.56-.4 3.23-.4 2.48 0 4.15.87 1.67.8 2.7 2.25 1.05 1.44 1.45 3.4.46 1.9.46 4.15v17.7h-2.14l-.3-3.57h-.1q-2.14 1.68-4.62 3-2.42 1.27-5.2 1.27-1.66 0-3.1-.46-1.44-.45-2.6-1.37-1.1-.93-1.73-2.37-.62-1.44-.62-3.4zm2.65-.12q0 3 1.73 4.27 1.73 1.28 4.1 1.28 2.42 0 4.6-1.15 2.2-1.16 4.8-3.35v-9.4q-4.27.52-7.2 1.27-2.9.75-4.68 1.8-1.8 1.03-2.6 2.35-.75 1.33-.75 2.94zm8.7-24.05q-2 0-3.4-1.4-1.32-1.37-1.32-3.57 0-2.25 1.34-3.63 1.38-1.38 3.4-1.38t3.35 1.38q1.37 1.38 1.37 3.63 0 2.2-1.38 3.58-1.34 1.4-3.36 1.4zm0-1.5q1.28 0 2.14-.93.87-.98.87-2.54 0-1.6-.87-2.53-.86-.98-2.13-.98t-2.13.98q-.86.92-.86 2.53 0 1.56.87 2.54.87.92 2.14.92zM367.46 45.7H370v38.13q0 .93.34 1.4.35.4.87.4h.35q.24 0 .7-.12l.46 2.08q-.4.12-.8.18-.4.1-1.04.1-3.4 0-3.4-4.37V45.7zM380.7 59.5h2.52v17.4q0 4.45 1.44 6.6 1.5 2.06 4.85 2.06 2.5 0 4.5-1.32 2.03-1.4 4.45-4.33V59.5H401v27.68h-2.15l-.3-4.6h-.1q-2.02 2.4-4.27 3.85-2.25 1.44-5.13 1.44-4.33 0-6.35-2.6-2-2.6-2-8V59.5zM411.62 59.5h2.2l.22 4.26h.17q2.14-2.13 4.4-3.5 2.24-1.46 5.13-1.46 4.32 0 6.34 2.6 2.02 2.6 2.02 8.02v17.76h-2.55V69.76q0-4.44-1.5-6.5-1.44-2.15-4.84-2.15-2.47 0-4.5 1.34-2 1.27-4.55 3.86v20.88h-2.53V59.5zM442.37 92.6q0 2.6 2.36 4.2 2.43 1.63 6.87 1.63 2.3 0 4.2-.64 1.9-.6 3.24-1.57 1.32-.98 2.02-2.24.75-1.23.75-2.55 0-2.3-1.67-3.3-1.6-.9-4.73-.9h-5.94q-.46 0-1.44-.07-.92-.12-2.02-.4-1.9 1.32-2.77 2.82-.86 1.5-.86 3zm-2.42.23q0-1.84 1.1-3.57 1.1-1.73 3-3.12v-.23q-1.05-.62-1.74-1.72-.68-1.1-.68-2.7 0-1.86 1.04-3.12 1.04-1.33 1.96-1.97v-.24q-1.33-1.15-2.42-3.1-1.04-1.97-1.04-4.5 0-2.14.75-3.93.76-1.8 2.08-3.06 1.33-1.32 3.12-2.02 1.8-.75 3.8-.75 1.16 0 2.08.24.92.17 1.56.46h9.4v2.13h-6.46q1.33 1.15 2.2 3 .86 1.8.86 3.98 0 2.14-.75 3.93-.76 1.8-2.1 3.12-1.26 1.26-3.05 2-1.73.7-3.75.7-1.15 0-2.42-.28-1.2-.3-2.2-.87-.9.75-1.6 1.67-.64.93-.64 2.3 0 1.5 1.1 2.6 1.1 1.05 4.2 1.05h5.95q4.66 0 6.85 1.55 2.25 1.5 2.25 4.8 0 1.78-.92 3.45-.93 1.73-2.66 3-1.67 1.32-4.1 2.07-2.4.8-5.4.8-5.26 0-8.32-2.07-3.05-2.08-3.05-5.6zm10.95-16.5q1.45 0 2.72-.5 1.32-.6 2.3-1.63.98-1.03 1.56-2.48.58-1.44.58-3.17t-.58-3.17q-.58-1.44-1.56-2.42-.92-.98-2.25-1.5-1.32-.58-2.77-.58-1.5 0-2.82.58-1.27.52-2.25 1.5t-1.56 2.42q-.57 1.38-.57 3.17 0 1.73.57 3.17.58 1.45 1.56 2.48 1.04 1.04 2.3 1.62 1.33.52 2.77.52zM467.32 73.4q0-3.35.98-6.06.98-2.7 2.65-4.6 1.73-1.92 3.92-2.9 2.25-1.04 4.73-1.04 2.54 0 4.4.93 1.9.86 3.97 2.48l-.12-5.07V45.7h2.54V87.2h-2.2l-.23-3.58h-.18q-1.68 1.68-4 3-2.24 1.27-5 1.27-5.25 0-8.37-3.7-3.1-3.74-3.1-10.77zm2.7 0q0 2.76.6 5 .62 2.26 1.77 3.88 1.15 1.55 2.82 2.48 1.73.86 3.92.86 2.3 0 4.4-1.15 2.12-1.2 4.3-3.4V64.63q-2.18-1.96-4.14-2.77-1.9-.8-3.92-.8-2.08 0-3.87.97-1.78.93-3.1 2.6-1.27 1.6-2.02 3.92-.75 2.25-.75 4.85zM498.75 73.4q0-3.46.98-6.18 1.03-2.76 2.7-4.6 1.74-1.85 4-2.83 2.24-1 4.72-1 2.48 0 4.73 1 2.3.97 3.97 2.8 1.73 1.86 2.72 4.62 1.03 2.72 1.03 6.18 0 3.46-1.03 6.17-1 2.65-2.72 4.5-1.67 1.84-3.97 2.82-2.25.97-4.73.97-2.48 0-4.73-.98-2.25-1-3.98-2.83-1.68-1.85-2.7-4.5-1-2.7-1-6.17zm2.65 0q0 2.7.75 4.96.75 2.24 2.02 3.86 1.32 1.6 3.1 2.54 1.8.86 3.88.86 2.07 0 3.86-.86 1.86-.93 3.12-2.54 1.33-1.62 2.08-3.86.75-2.25.75-4.96 0-2.77-.75-5.02-.75-2.25-2.08-3.87-1.26-1.66-3.1-2.52-1.8-.93-3.87-.93-2.08 0-3.87.93-1.8.86-3.1 2.53-1.28 1.63-2.03 3.88-.75 2.25-.75 5.02zM531.92 59.5h2.2l.22 4.26h.17q1.86-2.13 4.1-3.5 2.3-1.46 4.62-1.46 3.35 0 5.13 1.56 1.8 1.5 2.54 4.1 2.4-2.6 4.66-4.1 2.3-1.56 4.73-1.56 8.3 0 8.3 10.62v17.76H566V69.76q0-4.44-1.5-6.5-1.5-2.15-4.67-2.15-3.75 0-8.3 5.2v20.88H549V69.76q0-4.44-1.5-6.5-1.5-2.15-4.74-2.15-3.75 0-8.3 5.2v20.88h-2.54V59.5z"/></g></svg>
